<svg data-v-423bf9ae="" xmlns="http://www.w3.org/2000/svg" viewBox="0 0 64.00194053949559 60" class="icon"><!----><!----><!----><!----><g data-v-423bf9ae="" id="9e3d9258-cd48-40d1-99f0-913795bcb02a" transform="matrix(0.17735477368476174,0,0,0.17735477368476174,-4.6290263136750625,-6.263477271073988)" stroke="none" fill="white"><path d="M70.154 190.235a4.4 4.4 0 0 1-4.399 4.402 4.402 4.402 0 0 1 0-8.801 4.399 4.399 0 0 1 4.399 4.399zm58.994-4.821c-25.944-2.826-38.979 7.453-71.182 31.357-27.572 20.467-32.767 4.381-31.748-2.614 1.499-10.282 25.222-58.573 48.079-88.461 28.273 7.34 49.87 30.727 54.851 59.718zm-55.916 4.821a7.478 7.478 0 1 0-14.956 0 7.48 7.48 0 0 0 7.478 7.481 7.48 7.48 0 0 0 7.478-7.481zM58.2 238.659l-.234 14.041 20.413 22.687-9.818 7.353 33.306 27.492-11.759 8.124 42.632 19.939-10.825 9.747 48.291 8.078-7.526 10.307 48.758-4.531-3.997 11.725 53.916-18.153-2.76 13.357 48.077-34.345 1.479 13.562 34.087-48.576 7.478 14.206 15.187-58.89 10.391 8.533-2.14-57.884 13.814 5.13-21.082-51.204 13.404.048-33.696-42.131 15.312-1.366-47.026-32.831 14.255-8.399-54.817-14.682 9.257-11.695-49.625.352.6-13.337L195.015 49.4l-1.597-12.689-29.984 21.429-6.446-10.852-22.59 26.504-7.021-9.572-18.923 30.294-9.596-8.744-16.754 30.138c31.51 10.197 54.98 37.951 59.127 71.547.404.087-22.37 31.257 10.955 57.85-.576-2.985-6.113-53.902 47.496-57.61 26.668-1.844 48.4 21.666 48.4 48.399 0 8.184-2.05 15.883-5.636 22.64-15.927 29.611-64.858 30.755-80.429 30.596-45.154-.459-104.052-51.521-104.052-51.521l.235.85z"></path></g><!----></svg>