<?xml version="1.0" encoding="UTF-8"?>
<svg xmlns="http://www.w3.org/2000/svg" xmlns:xlink="http://www.w3.org/1999/xlink" width="59pt" height="56pt" viewBox="0 0 59 56" version="1.1">
<g id="surface1">
<path style=" stroke:none;fill-rule:nonzero;fill:rgb(100%,100%,100%);fill-opacity:1;" d="M 7.203125 25.644531 C 7.203125 26.046875 6.878906 26.371094 6.484375 26.371094 C 6.09375 26.363281 5.78125 26.039062 5.78125 25.644531 C 5.78125 25.25 6.09375 24.925781 6.484375 24.914062 C 6.878906 24.914062 7.203125 25.242188 7.203125 25.644531 Z M 16.847656 24.847656 C 12.605469 24.378906 10.476562 26.078125 5.210938 30.035156 C 0.703125 33.425781 -0.148438 30.761719 0.0195312 29.605469 C 0.265625 27.902344 4.144531 19.910156 7.878906 14.960938 C 12.503906 16.175781 16.035156 20.046875 16.847656 24.847656 Z M 7.707031 25.644531 C 7.707031 24.960938 7.160156 24.40625 6.484375 24.40625 C 5.808594 24.40625 5.261719 24.960938 5.261719 25.644531 C 5.261719 26.328125 5.808594 26.882812 6.484375 26.882812 C 7.160156 26.882812 7.707031 26.328125 7.707031 25.644531 Z M 5.25 33.660156 L 5.210938 35.984375 L 8.546875 39.738281 L 6.941406 40.957031 L 12.386719 45.507812 L 10.464844 46.851562 L 17.433594 50.152344 L 15.664062 51.765625 L 23.558594 53.101562 L 22.328125 54.808594 L 30.300781 54.058594 L 29.648438 56 L 38.464844 52.996094 L 38.011719 55.207031 L 45.871094 49.519531 L 46.113281 51.765625 L 51.6875 43.722656 L 52.910156 46.074219 L 55.390625 36.328125 L 57.089844 37.742188 L 56.742188 28.160156 L 59 29.007812 L 55.554688 20.53125 L 57.746094 20.539062 L 52.234375 13.566406 L 54.738281 13.339844 L 47.050781 7.90625 L 49.382812 6.515625 L 40.417969 4.085938 L 41.933594 2.148438 L 33.820312 2.207031 L 33.917969 0 L 27.617188 2.332031 L 27.355469 0.230469 L 22.453125 3.777344 L 21.398438 1.984375 L 17.707031 6.371094 L 16.558594 4.785156 L 13.464844 9.800781 L 11.894531 8.351562 L 9.15625 13.339844 C 14.308594 15.027344 18.144531 19.621094 18.824219 25.183594 C 18.890625 25.199219 15.164062 30.359375 20.613281 34.757812 C 20.519531 34.265625 19.613281 25.835938 28.378906 25.222656 C 32.738281 24.917969 36.292969 28.808594 36.292969 33.234375 C 36.292969 34.589844 35.957031 35.863281 35.371094 36.980469 C 32.765625 41.882812 24.765625 42.074219 22.222656 42.046875 C 14.839844 41.972656 5.210938 33.519531 5.210938 33.519531 Z M 5.25 33.660156 "/>
</g>
</svg>
